<?xml version="1.0" ?><svg viewBox="0 0 512 512" xmlns="http://www.w3.org/2000/svg"><title/><g id="Pregnancy"><path d="M253.73,74.37A100.69,100.69,0,0,0,153.16,174.94V337.06a100.57,100.57,0,0,0,201.14,0V174.94A100.69,100.69,0,0,0,253.73,74.37Zm0,360.26a97.68,97.68,0,0,1-97.57-97.57V284.8L242.52,349l1.79-2.41-88.15-65.55V250.51l124.07,92.25,1.79-2.41L156.16,246.77V174.94a97.57,97.57,0,0,1,195.14,0v61.51l-67.64,50.29,1.79,2.41,65.85-49v96.87A97.68,97.68,0,0,1,253.73,434.63Z"/><path d="M332.15,179.08a78.42,78.42,0,1,0-78.42,78.42A78.51,78.51,0,0,0,332.15,179.08ZM253.73,254.5a75.41,75.41,0,0,1-1.5-150.8v17.72a5.49,5.49,0,1,1-11,0v-3.13h-3v3.13a8.49,8.49,0,1,0,17,0V103.7a75.41,75.41,0,0,1-1.5,150.8Z"/><path d="M264,201.74H245a1.5,1.5,0,0,0-1.5,1.5,11,11,0,0,0,22,0A1.5,1.5,0,0,0,264,201.74Zm-9.51,9.51a8,8,0,0,1-7.87-6.51h15.74A8,8,0,0,1,254.48,211.25Z"/><path d="M225.4,168.45a4.21,4.21,0,1,0,4.21,4.21A4.2,4.2,0,0,0,225.4,168.45Z"/><path d="M281.34,168.45a4.21,4.21,0,1,0,4.2,4.21A4.21,4.21,0,0,0,281.34,168.45Z"/></g></svg>