<?xml version="1.0" ?><svg data-name="Layer 2" id="Layer_2" viewBox="0 0 32 32" xmlns="http://www.w3.org/2000/svg"><title/><path d="M17.62,11.52a1.25,1.25,0,0,0,0,2.5A1.25,1.25,0,0,0,17.62,11.52Z"/><path d="M26.34,19.84a1.16,1.16,0,0,0-.6-.81,17.46,17.46,0,0,1-3.31-2.42,9,9,0,0,0,.81-5,5.52,5.52,0,0,0-6.49-4.87,5.82,5.82,0,0,0-5.08,5.79,7.65,7.65,0,0,0,1,4c-.53.27-1.28.44-1.73.64a20.12,20.12,0,0,0-2.4,1.34,1.25,1.25,0,0,0-.38,1.75,1.34,1.34,0,0,0,.4.47L15.76,26a1.11,1.11,0,0,0,.57.22,1.08,1.08,0,0,0,.84-.19,89.28,89.28,0,0,1,8.65-4.73A1.11,1.11,0,0,0,26.34,19.84ZM15.17,10.08A3.72,3.72,0,0,1,19.93,10c1.1,1.13,1,2.94.64,4.35a9.15,9.15,0,0,1-2.71,4.34C15.48,16.61,12.24,12.84,15.17,10.08Zm-1,8.5a21.69,21.69,0,0,0,2.75,2.59,1.28,1.28,0,0,0,.82.3,1.32,1.32,0,0,0,1.09-.26,13.05,13.05,0,0,0,2.34-2.41,20.09,20.09,0,0,0,1.61,1.28,66.75,66.75,0,0,0-6.22,3.41l-5.09-3.73c.37-.19.73-.38,1.11-.54S13.63,18.84,14.14,18.58Z"/></svg>